<?xml version="1.0" encoding="UTF-8"?>
<!DOCTYPE svg PUBLIC "-//W3C//DTD SVG 1.1//EN" "http://www.w3.org/Graphics/SVG/1.1/DTD/svg11.dtd">
<!-- Creator: CorelDRAW X6 -->
<svg xmlns="http://www.w3.org/2000/svg" xml:space="preserve" width="189.424mm" height="65.587mm" version="1.1" shape-rendering="geometricPrecision" text-rendering="geometricPrecision" image-rendering="optimizeQuality" fill-rule="evenodd" clip-rule="evenodd"
viewBox="0 0 18942 6559"
 xmlns:xlink="http://www.w3.org/1999/xlink">
 <g id="Capa_x0020_1">
  <metadata id="CorelCorpID_0Corel-Layer"/>
  <g id="_302756544">
   <path fill="#D64430" fill-rule="nonzero" d="M8200 3122c0,413 -143,773 -428,1082 -311,335 -718,502 -1219,502 -484,0 -877,-165 -1180,-495 -268,-295 -402,-643 -402,-1043 0,-434 159,-807 477,-1118 318,-311 719,-466 1203,-466 458,0 836,159 1135,476 277,295 415,649 415,1062zm-1498 1388c281,0 501,-111 661,-332 130,-178 195,-419 195,-723 0,-378 -78,-728 -233,-1049 -203,-413 -484,-619 -843,-619 -225,0 -419,74 -584,222 -199,178 -298,443 -298,795 0,395 86,760 259,1095 207,408 488,613 843,613z"/>
   <path id="1" fill="#FFB80A" fill-rule="nonzero" d="M11633 3122c0,413 -143,773 -428,1082 -311,335 -718,502 -1219,502 -484,0 -877,-165 -1180,-495 -268,-295 -402,-643 -402,-1043 0,-434 159,-807 477,-1118 318,-311 719,-466 1203,-466 458,0 836,159 1135,476 277,295 415,649 415,1062zm-1498 1388c281,0 501,-111 661,-332 130,-178 195,-419 195,-723 0,-378 -78,-728 -233,-1049 -203,-413 -484,-619 -843,-619 -225,0 -419,74 -584,222 -199,178 -298,443 -298,795 0,395 86,760 259,1095 207,408 488,613 843,613z"/>
   <path id="2" fill="none" fill-rule="nonzero" stroke="#D6412B" stroke-width="52.92" d="M8200 3122c0,413 -143,773 -428,1082 -311,335 -718,502 -1219,502 -484,0 -877,-165 -1180,-495 -268,-295 -402,-643 -402,-1043 0,-434 159,-807 477,-1118 318,-311 719,-466 1203,-466 458,0 836,159 1135,476 277,295 415,649 415,1062zm-1498 1388c281,0 501,-111 661,-332 130,-178 195,-419 195,-723 0,-378 -78,-728 -233,-1049 -203,-413 -484,-619 -843,-619 -225,0 -419,74 -584,222 -199,178 -298,443 -298,795 0,395 86,760 259,1095 207,408 488,613 843,613z"/>
   <path id="3" fill="none" fill-rule="nonzero" stroke="#FFB718" stroke-width="52.92" d="M11633 3122c0,413 -143,773 -428,1082 -311,335 -718,502 -1219,502 -484,0 -877,-165 -1180,-495 -268,-295 -402,-643 -402,-1043 0,-434 159,-807 477,-1118 318,-311 719,-466 1203,-466 458,0 836,159 1135,476 277,295 415,649 415,1062zm-1498 1388c281,0 501,-111 661,-332 130,-178 195,-419 195,-723 0,-378 -78,-728 -233,-1049 -203,-413 -484,-619 -843,-619 -225,0 -419,74 -584,222 -199,178 -298,443 -298,795 0,395 86,760 259,1095 207,408 488,613 843,613z"/>
   <path fill="#1D71EF" stroke="#1D71EF" stroke-width="20" d="M3793 1159l609 -635c-1985,-1276 -4420,-143 -4383,1841 33,1757 1520,2949 4392,2057l18 -1244 273 -273 -1490 0 -273 256 847 0 0 1164c-1536,433 -2980,-345 -3078,-2064 -72,-1944 1908,-2553 3085,-1510l2 408z"/>
   <path fill="#186DEE" d="M14095 1894l344 0 238 -256 -1486 0c-1483,-11 -1782,2288 31,2240 -90,230 -75,443 141,626 -2613,257 -1786,1976 -635,2010 399,29 277,22 529,28 809,-25 1236,-364 1413,-842 151,-408 37,-1031 -709,-1461 -47,-27 -83,-65 -113,-107 -30,-42 -52,-88 -71,-130 -23,-131 72,-289 165,-349 732,-468 780,-1183 152,-1759zm-761 1781c171,0 317,-60 436,-180 107,-107 160,-263 160,-469 0,-270 -68,-524 -205,-764 -158,-278 -359,-417 -603,-417 -223,0 -387,94 -494,282 -64,107 -96,242 -96,404 0,261 64,505 193,732 154,274 357,411 610,411zm964 1883c0,-155 -56,-294 -168,-419 -86,-95 -264,-238 -535,-432 -34,-4 -84,-6 -148,-6 -249,0 -475,34 -677,103 -369,129 -554,350 -554,664 0,232 104,421 313,567 208,146 482,219 822,219 301,0 537,-67 709,-200 159,-125 238,-290 238,-496z"/>
   <path fill="#05A35E" stroke="#05A35E" stroke-width="20" d="M15154 424l-406 0 265 -282 1050 0 -256 291 0 3810c17,154 160,208 467,220l-150 203 -1252 0 282 -265 0 -3978z"/>
   <path fill="#DA4E3A" stroke="#DA4E3A" stroke-width="20" d="M16911 3222l1940 -785c-101,-734 -1196,-1001 -1826,-644 -1872,1110 -27,4176 1935,2355 -986,412 -1676,120 -2050,-926zm1153 -681l-1202 465c-73,-508 -10,-943 558,-1144 244,-68 625,92 750,397 70,146 25,224 -106,282z"/>
   <path fill="none" stroke="#DA4E3A" stroke-width="20" d="M18064 2541l-1202 465c-73,-508 -10,-943 558,-1144 244,-68 625,92 750,397 70,146 25,224 -106,282z"/>
  </g>
 </g>
</svg>
